<?xml version="1.0" encoding="UTF-8" standalone="no"?>
<!-- Created with Inkscape (http://www.inkscape.org/) -->

<svg
   xmlns:dc="http://purl.org/dc/elements/1.1/"
   xmlns:cc="http://creativecommons.org/ns#"
   xmlns:rdf="http://www.w3.org/1999/02/22-rdf-syntax-ns#"
   xmlns:svg="http://www.w3.org/2000/svg"
   xmlns="http://www.w3.org/2000/svg"
   xmlns:xlink="http://www.w3.org/1999/xlink"
   xmlns:sodipodi="http://sodipodi.sourceforge.net/DTD/sodipodi-0.dtd"
   xmlns:inkscape="http://www.inkscape.org/namespaces/inkscape"
   width="1066.6666"
   height="1066.6666"
   id="svg2"
   sodipodi:version="0.32"
   inkscape:version="0.92.1 r15371"
   sodipodi:docname="north.svg"
   inkscape:output_extension="org.inkscape.output.svg.inkscape"
   version="1.1"
   viewBox="0 0 1000 1000">
  <defs
     id="defs4">
    <inkscape:perspective
       sodipodi:type="inkscape:persp3d"
       inkscape:vp_x="0 : 526.18111 : 1"
       inkscape:vp_y="0 : 1000 : 0"
       inkscape:vp_z="744.09451 : 526.18111 : 1"
       inkscape:persp3d-origin="372.04725 : 350.7874 : 1"
       id="perspective10" />
    <inkscape:perspective
       id="perspective2427"
       inkscape:persp3d-origin="372.04725 : 350.7874 : 1"
       inkscape:vp_z="744.09451 : 526.18111 : 1"
       inkscape:vp_y="0 : 1000 : 0"
       inkscape:vp_x="0 : 526.18111 : 1"
       sodipodi:type="inkscape:persp3d" />
    <inkscape:perspective
       id="perspective2440"
       inkscape:persp3d-origin="372.04725 : 350.7874 : 1"
       inkscape:vp_z="744.09451 : 526.18111 : 1"
       inkscape:vp_y="0 : 1000 : 0"
       inkscape:vp_x="0 : 526.18111 : 1"
       sodipodi:type="inkscape:persp3d" />
    <clipPath
       clipPathUnits="userSpaceOnUse"
       id="clipPath4517">
      <use
         x="0"
         y="0"
         xlink:href="#g4513"
         id="use4519"
         width="100%"
         height="100%" />
    </clipPath>
  </defs>
  <sodipodi:namedview
     id="base"
     pagecolor="#ffffff"
     bordercolor="#666666"
     borderopacity="1.0"
     inkscape:pageopacity="0.0"
     inkscape:pageshadow="2"
     inkscape:zoom="0.76924064"
     inkscape:cx="45.413317"
     inkscape:cy="482.71802"
     inkscape:document-units="px"
     inkscape:current-layer="layer1"
     showgrid="false"
     inkscape:window-width="1920"
     inkscape:window-height="1137"
     inkscape:window-x="1912"
     inkscape:window-y="-8"
     units="px"
     fit-margin-top="0"
     fit-margin-left="0"
     fit-margin-right="0"
     fit-margin-bottom="0"
     inkscape:window-maximized="1" />
  <metadata
     id="metadata7">
    <rdf:RDF>
      <cc:Work
         rdf:about="">
        <dc:format>image/svg+xml</dc:format>
        <dc:type
           rdf:resource="http://purl.org/dc/dcmitype/StillImage" />
        <dc:title />
      </cc:Work>
    </rdf:RDF>
  </metadata>
  <g
     inkscape:label="Ebene 1"
     inkscape:groupmode="layer"
     id="layer1"
     transform="translate(-163.26874,-39.177878)">
    <path
       style="color:#000000;display:inline;overflow:visible;visibility:visible;fill:#ffffff;fill-opacity:1;fill-rule:nonzero;stroke:#ff5eff;stroke-width:3;stroke-linecap:butt;stroke-linejoin:miter;stroke-miterlimit:4;stroke-dasharray:none;stroke-dashoffset:0;stroke-opacity:0;marker:none;enable-background:accumulate"
       d="M 650.58594,55.806641 C 635.58782,56.330012 625.447,70.29 620.98633,83.326172 516.59758,299.67191 413.65568,516.73028 314.13268,735.35183 c -5.32795,13.38088 -12.83005,27.95011 -9.35534,42.72825 5.54893,18.39444 29.94379,30.08774 46.65821,18.75 17.12588,-14.43871 30.74728,-32.43854 46.94314,-47.84981 83.55607,-87.55771 165.91998,-176.2457 249.4885,-263.78691 100.75604,102.10272 196.22084,209.32632 297.48828,310.95312 18.03202,13.28806 48.28437,-0.93438 48.21289,-23.70507 0.6283,-18.77026 -11.84993,-34.32832 -17.50624,-51.44781 C 929.51312,615.34087 878.51673,511.73588 830.28316,406.85853 776.87858,292.80602 723.9223,178.51287 668.35547,65.490234 664.44727,59.693191 657.75819,55.397622 650.58594,55.806641 Z M 625.45703,246.07812 c 0.22452,55.4915 0.0203,110.98344 -0.19726,166.47461 -58.93134,63.14823 -118.16358,126.00437 -177.36524,188.90235 59.05105,-125.87489 117.9172,-251.84466 177.44336,-377.49024 0.0397,7.3711 0.0794,14.74219 0.11914,22.11328 z m -102.17578,496.625 c 0,96.92839 0,193.85678 0,290.78518 26.70443,0 53.40885,0 80.11328,0 0,-44.08791 0,-88.1758 0,-132.26369 23.37206,44.08772 46.7416,88.17679 70.11524,132.26369 27.67773,0 55.35546,0 83.0332,0 0,-97.59507 0,-195.19012 0,-292.78518 -26.70443,10e-6 -53.40886,0 -80.11328,0 0,44.0879 0,88.17579 0,132.26368 -23.37206,-44.08773 -46.7416,-88.17679 -70.11524,-132.26368 -27.67773,0 -55.35547,10e-6 -83.0332,0 v 1 z"
       id="path2452-4"
       inkscape:connector-curvature="0" />
    <g
       id="g4515"
       clip-path="url(#clipPath4517)">
      <g
         inkscape:label="Clip"
         id="g4513">
        <path
           inkscape:connector-curvature="0"
           id="path2452"
           d="m 650.34544,78.49637 c -0.95301,-1.13207 -74.86638,153.22977 -164.18585,343.02632 -160.7976,341.68168 -162.26896,345.1531 -156.49671,350.26315 3.20632,2.83852 6.95741,4.7971 8.32237,4.34211 1.36495,-0.455 71.17009,-73.87872 155.13981,-163.10033 83.96964,-89.22161 153.6648,-162.82495 154.8684,-163.55263 1.20361,-0.72768 71.42164,72.33223 156.04441,162.28618 84.62277,89.95395 155.2096,163.81568 156.94902,164.18586 1.73941,0.37018 5.56701,-1.18994 8.50328,-3.4375 5.03734,-3.85582 -3.75432,-23.46263 -156.0444,-348.00165 C 724.67519,235.33263 651.29841,79.62841 650.34544,78.49637 Z m -2.71382,42.69737 c 1.39034,-1.53699 2.44244,63.90817 2.44244,148.35526 V 420.61808 L 507.77965,571.95854 C 383.16671,704.4164 363.97318,724.81518 362.68097,725.47005 c 0.13898,-0.34884 1.00421,-1.56845 1.35691,-2.26151 0.81023,-1.5921 64.41326,-137.06579 141.29933,-301.05263 76.88604,-163.98684 140.92622,-299.44967 142.29441,-300.96217 z m -99.77796,641.99835 v 244.78621 h 32.11349 V 803.17565 l 108.55263,204.80265 h 44.59704 V 763.19209 H 701.00333 V 967.99472 L 592.4507,763.19209 Z"
           style="color:#000000;display:inline;overflow:visible;visibility:visible;fill:#000000;fill-opacity:1;fill-rule:nonzero;stroke-width:3.00000011;stroke-linecap:butt;stroke-linejoin:miter;stroke-miterlimit:4;stroke-dasharray:none;stroke-dashoffset:0;stroke-opacity:0;marker:none;enable-background:accumulate;stroke:#ff5eff" />
      </g>
    </g>
    <path
       style="fill:#ffffff;fill-opacity:1"
       d="m 204.06744,679.65357 c -0.0833,-1.53688 220.82693,-472.00961 259.8374,-553.376 10.10444,-21.07541 18.84746,-38.794679 19.42894,-39.376153 1.91151,-1.911514 2.77388,52.267973 2.77388,174.272953 v 120.20834 l -18.59567,19.65525 c -10.22761,10.81039 -70.0431,74.31781 -132.92329,141.12762 -62.8802,66.8098 -117.95856,125.30905 -122.39636,129.99833 -4.43781,4.68928 -8.09401,8.05963 -8.1249,7.48966 z"
       id="path2986"
       inkscape:connector-curvature="0"
       transform="translate(163.26874,39.177878)" />
  </g>
</svg>
