<?xml version="1.0" encoding="UTF-8" standalone="no"?>
<!-- Created with Inkscape (http://www.inkscape.org/) -->

<svg
   xmlns:dc="http://purl.org/dc/elements/1.1/"
   xmlns:cc="http://creativecommons.org/ns#"
   xmlns:rdf="http://www.w3.org/1999/02/22-rdf-syntax-ns#"
   xmlns:svg="http://www.w3.org/2000/svg"
   xmlns="http://www.w3.org/2000/svg"
   xmlns:xlink="http://www.w3.org/1999/xlink"
   xmlns:sodipodi="http://sodipodi.sourceforge.net/DTD/sodipodi-0.dtd"
   xmlns:inkscape="http://www.inkscape.org/namespaces/inkscape"
   width="1066.6666"
   height="1066.6666"
   id="svg2"
   sodipodi:version="0.32"
   inkscape:version="0.92.1 r15371"
   sodipodi:docname="north1.svg"
   inkscape:output_extension="org.inkscape.output.svg.inkscape"
   version="1.1"
   viewBox="0 0 1000 1000">
  <defs
     id="defs4">
    <inkscape:perspective
       sodipodi:type="inkscape:persp3d"
       inkscape:vp_x="0 : 526.18111 : 1"
       inkscape:vp_y="0 : 1000 : 0"
       inkscape:vp_z="744.09451 : 526.18111 : 1"
       inkscape:persp3d-origin="372.04725 : 350.7874 : 1"
       id="perspective10" />
    <inkscape:perspective
       id="perspective2427"
       inkscape:persp3d-origin="372.04725 : 350.7874 : 1"
       inkscape:vp_z="744.09451 : 526.18111 : 1"
       inkscape:vp_y="0 : 1000 : 0"
       inkscape:vp_x="0 : 526.18111 : 1"
       sodipodi:type="inkscape:persp3d" />
    <inkscape:perspective
       id="perspective2440"
       inkscape:persp3d-origin="372.04725 : 350.7874 : 1"
       inkscape:vp_z="744.09451 : 526.18111 : 1"
       inkscape:vp_y="0 : 1000 : 0"
       inkscape:vp_x="0 : 526.18111 : 1"
       sodipodi:type="inkscape:persp3d" />
    <clipPath
       clipPathUnits="userSpaceOnUse"
       id="clipPath4517">
      <use
         x="0"
         y="0"
         xlink:href="#g4513"
         id="use4519"
         width="100%"
         height="100%" />
    </clipPath>
  </defs>
  <sodipodi:namedview
     id="base"
     pagecolor="#ffffff"
     bordercolor="#666666"
     borderopacity="1.0"
     inkscape:pageopacity="0.0"
     inkscape:pageshadow="2"
     inkscape:zoom="0.76924064"
     inkscape:cx="45.413317"
     inkscape:cy="482.71802"
     inkscape:document-units="px"
     inkscape:current-layer="layer1"
     showgrid="false"
     inkscape:window-width="1920"
     inkscape:window-height="1137"
     inkscape:window-x="1912"
     inkscape:window-y="-8"
     units="px"
     fit-margin-top="0"
     fit-margin-left="0"
     fit-margin-right="0"
     fit-margin-bottom="0"
     inkscape:window-maximized="1" />
  <metadata
     id="metadata7">
    <rdf:RDF>
      <cc:Work
         rdf:about="">
        <dc:format>image/svg+xml</dc:format>
        <dc:type
           rdf:resource="http://purl.org/dc/dcmitype/StillImage" />
        <dc:title />
      </cc:Work>
    </rdf:RDF>
  </metadata>
  <g
     inkscape:label="Ebene 1"
     inkscape:groupmode="layer"
     id="layer1"
     transform="translate(-163.26874,-39.177878)">
    <path
       style="color:#000000;display:inline;overflow:visible;visibility:visible;fill:#ffffff;fill-opacity:1;fill-rule:nonzero;stroke:#ff5eff;stroke-width:3;stroke-linecap:butt;stroke-linejoin:miter;stroke-miterlimit:4;stroke-dasharray:none;stroke-dashoffset:0;stroke-opacity:0;marker:none;enable-background:accumulate"
       d="M 650.29883,69.837891 C 639.92659,71.123239 636.98721,82.943645 633.05469,90.798828 553.46945,253.9551 476.52904,418.42846 399.5719,582.85017 c -24.45579,53.3017 -50.51237,105.89755 -73.42763,159.88816 -2.93697,8.82375 -8.03531,17.34698 -8.55638,26.74214 0.17599,12.90752 17.15081,23.49379 27.83008,14.63867 43.05593,-45.09493 86.35844,-90.15933 128.98292,-135.7408 57.58387,-61.2725 115.25758,-122.46167 173.30419,-183.30217 101.7044,102.78609 198.44458,210.34693 299.58789,313.66016 5.07245,7.04042 15.04482,11.50505 23.05273,6.47265 8.80581,-4.20419 12.10746,-15.83996 7.26751,-24.23356 C 964.72865,726.95195 948.65473,694.23786 933.79865,661.05165 880.82642,546.87276 826.95641,433.10871 773.72305,319.0476 734.95437,236.69568 696.55439,154.06494 656.58789,72.347656 c -1.64395,-1.631197 -3.96291,-2.605925 -6.28906,-2.509765 z m -11.58399,95.171879 c 1.39733,84.13806 0.59959,168.40288 0.72071,252.47851 -5.60859,8.56215 -14.46905,14.45042 -20.64779,22.70314 C 545.19315,518.42193 471.70361,596.7492 397.98633,674.85742 478.1673,504.27533 557.68009,333.38233 638.67969,163.18945 l 0.0193,0.99982 z M 537.28125,756.70312 c 0,87.59506 0,175.19011 0,262.78518 17.37109,0 34.74219,0 52.11328,0 0,-58.19273 0,-116.38544 0,-174.57814 30.84604,58.19253 61.68942,116.38647 92.53711,174.57814 20.20378,0 40.40755,0 60.61133,0 0,-88.26174 0,-176.52346 0,-264.78518 -17.3711,0 -34.74219,0 -52.11328,0 0,58.19271 0,116.38542 0,174.57813 -30.84604,-58.19253 -61.68942,-116.38647 -92.53711,-174.57813 -20.20378,10e-6 -40.40755,0 -60.61133,0 v 1 z"
       id="path2452-4"
       inkscape:connector-curvature="0" />
    <g
       id="g4515"
       clip-path="url(#clipPath4517)">
      <g
         inkscape:label="Clip"
         id="g4513">
        <path
           inkscape:connector-curvature="0"
           id="path2452"
           d="m 650.34544,78.49637 c -0.95301,-1.13207 -74.86638,153.22977 -164.18585,343.02632 -160.7976,341.68168 -162.26896,345.1531 -156.49671,350.26315 3.20632,2.83852 6.95741,4.7971 8.32237,4.34211 1.36495,-0.455 71.17009,-73.87872 155.13981,-163.10033 83.96964,-89.22161 153.6648,-162.82495 154.8684,-163.55263 1.20361,-0.72768 71.42164,72.33223 156.04441,162.28618 84.62277,89.95395 155.2096,163.81568 156.94902,164.18586 1.73941,0.37018 5.56701,-1.18994 8.50328,-3.4375 5.03734,-3.85582 -3.75432,-23.46263 -156.0444,-348.00165 C 724.67519,235.33263 651.29841,79.62841 650.34544,78.49637 Z m -2.71382,42.69737 c 1.39034,-1.53699 2.44244,63.90817 2.44244,148.35526 V 420.61808 L 507.77965,571.95854 C 383.16671,704.4164 363.97318,724.81518 362.68097,725.47005 c 0.13898,-0.34884 1.00421,-1.56845 1.35691,-2.26151 0.81023,-1.5921 64.41326,-137.06579 141.29933,-301.05263 76.88604,-163.98684 140.92622,-299.44967 142.29441,-300.96217 z m -99.77796,641.99835 v 244.78621 h 32.11349 V 803.17565 l 108.55263,204.80265 h 44.59704 V 763.19209 H 701.00333 V 967.99472 L 592.4507,763.19209 Z"
           style="color:#000000;display:inline;overflow:visible;visibility:visible;fill:#000000;fill-opacity:1;fill-rule:nonzero;stroke-width:3.00000011;stroke-linecap:butt;stroke-linejoin:miter;stroke-miterlimit:4;stroke-dasharray:none;stroke-dashoffset:0;stroke-opacity:0;marker:none;enable-background:accumulate;stroke:#ff5eff" />
      </g>
    </g>
    <path
       style="fill:#ffffff;fill-opacity:1"
       d="m 204.06744,679.65357 c -0.0833,-1.53688 220.82693,-472.00961 259.8374,-553.376 10.10444,-21.07541 18.84746,-38.794679 19.42894,-39.376153 1.91151,-1.911514 2.77388,52.267973 2.77388,174.272953 v 120.20834 l -18.59567,19.65525 c -10.22761,10.81039 -70.0431,74.31781 -132.92329,141.12762 -62.8802,66.8098 -117.95856,125.30905 -122.39636,129.99833 -4.43781,4.68928 -8.09401,8.05963 -8.1249,7.48966 z"
       id="path2986"
       inkscape:connector-curvature="0"
       transform="translate(163.26874,39.177878)" />
  </g>
</svg>
